PathFileType	4	(X/Y/Z)	C:/Users/opensim2020/Desktop/walking_exp_matlab/subject06_walking11_run.trc	
DataRate	CameraRate	NumFrames	NumMarkers	Units	OrigDataRate	OrigDataStartFrame	OrigNumFrames	
100.00	100.00	4	46	mm	100.00	265	106	
Frame#	Time	LKNE			RKNE			RFRM			RWRA			RWRB			RELB			RUPA			RSHO			LWRA			RFIN			RFHD			CLAV			RASI			RTHI			LSHO			LTHI			RBHD			C7			LTIB			LANK			LTOE			LBHD			RTIB			RBAK			LHEE			RANK			STRN			RHEE			RTOE			T10			LUPA			LFHD			LPSI			RPSI			LASI			LFRM			LWRB			LFIN			LELB			*39			*40			*41			*42			*43			*44			*45			
		X1	Y1	Z1	X2	Y2	Z2	X3	Y3	Z3	X4	Y4	Z4	X5	Y5	Z5	X6	Y6	Z6	X7	Y7	Z7	X8	Y8	Z8	X9	Y9	Z9	X10	Y10	Z10	X11	Y11	Z11	X12	Y12	Z12	X13	Y13	Z13	X14	Y14	Z14	X15	Y15	Z15	X16	Y16	Z16	X17	Y17	Z17	X18	Y18	Z18	X19	Y19	Z19	X20	Y20	Z20	X21	Y21	Z21	X22	Y22	Z22	X23	Y23	Z23	X24	Y24	Z24	X25	Y25	Z25	X26	Y26	Z26	X27	Y27	Z27	X28	Y28	Z28	X29	Y29	Z29	X30	Y30	Z30	X31	Y31	Z31	X32	Y32	Z32	X33	Y33	Z33	X34	Y34	Z34	X35	Y35	Z35	X36	Y36	Z36	X37	Y37	Z37	X38	Y38	Z38	X39	Y39	Z39	X40	Y40	Z40	X41	Y41	Z41	X42	Y42	Z42	X43	Y43	Z43	X44	Y44	Z44	X45	Y45	Z45	X46	Y46	Z46	

80	0.790	69.05881	1152.17078	474.33362	322.41705	1349.88391	549.04822	465.59299	1132.63782	1153.68359	394.05820	1256.35779	1167.59729	425.51093	1252.97913	1109.52332	484.29169	1048.45654	1209.54919	444.94598	1090.86926	1303.73425	351.08328	1225.27295	1421.11987	64.11743	1371.32336	1234.25366	407.29745	1333.01538	1128.40271	286.33942	1317.41870	1660.42065	212.95145	1309.73035	1378.60022	310.68097	1280.40698	977.27051	358.90857	1300.35730	661.88751	52.85968	1277.48193	1428.64185	44.80677	1180.75244	636.92249	277.55630	1190.59680	1599.08496	192.61200	1204.80017	1458.57532	78.93033	916.45544	400.16776	110.97802	752.74231	355.43497	125.39807	740.45105	208.73502	148.24196	1194.22510	1605.80432	289.50461	1348.08472	280.38947	237.49797	1111.46973	1306.42871	156.08630	731.84662	391.89413	218.97203	1358.42993	104.29732	210.09526	1338.40063	1199.25830	174.44714	1321.40063	96.80187	191.20195	1510.76538	32.63536	177.06593	1141.72827	1145.01123	-61.79443	1255.44128	1266.57983	154.36652	1321.40320	1672.78882	107.28655	1147.11890	1001.77472	272.06854	1137.92554	1011.35138	97.09303	1294.75818	954.49365	-27.67172	1331.72058	1154.68262	68.72372	1395.84363	1168.67529	119.24692	1447.78784	1222.59644	-106.77325	1231.98511	1171.17395				209.65082	1215.67126	1701.39502															 
81	0.800	65.88597	1208.83337	464.55920	321.58868	1385.40637	539.55597	466.52451	1181.58337	1138.67883	392.41656	1303.40942	1155.60278	423.07272	1301.22083	1097.05151	487.05450	1096.72107	1193.15137	448.42624	1135.31763	1288.52002	352.83295	1265.51477	1411.22888	60.77406	1407.42737	1221.90857	404.16971	1380.87903	1117.66016	286.54428	1356.49304	1653.21729	212.83159	1348.62842	1370.94751	310.02698	1319.66187	970.56519	356.88138	1338.53467	654.68536	52.96348	1313.62244	1421.31018	42.25037	1229.48352	627.49097	279.78473	1229.48816	1591.56665	194.65007	1243.37061	1450.79199	75.17495	974.74927	393.60110	106.66095	810.63873	352.66666	117.89261	799.10760	206.50409	150.46323	1231.19409	1598.11365	286.12631	1368.19226	270.77573	238.99847	1150.86365	1297.94080	152.27638	789.64728	388.81000	216.43613	1361.52295	94.16623	208.52571	1377.61279	1191.65161	175.00166	1320.69336	84.93418	188.61452	1513.21521	32.98269	175.96906	1180.45227	1137.71326	-62.36922	1287.40332	1260.26953	154.40636	1358.33948	1665.43005	104.71066	1186.61609	993.57214	269.87411	1176.49976	1004.03137	95.79149	1334.60938	947.06879	-31.36092	1363.26318	1145.26758	63.27901	1430.51855	1155.60791	113.16502	1485.23816	1207.17529	-107.22890	1261.71912	1165.89099				211.55969	1253.48511	1693.82898															 
82	0.810	62.96923	1266.62976	455.28995	319.05994	1421.61353	530.10638	466.94696	1231.25342	1122.95190	390.57718	1351.02429	1143.10889	420.59201	1350.50879	1084.21558	489.71866	1145.88367	1175.96948	452.01563	1180.73218	1272.35742	355.11417	1306.23340	1400.66919	56.41341	1443.02136	1208.96155	400.42542	1429.37903	1105.97791	286.29233	1395.09790	1645.69678	212.49809	1387.48499	1362.78564	309.14047	1358.64844	962.79242	357.07840	1374.26343	644.27399	52.64140	1349.23657	1413.46277	39.66918	1278.92944	618.13580	282.19424	1268.86121	1583.70630	196.66940	1281.52917	1442.53833	70.90105	1034.80334	386.47995	101.78999	870.43085	347.95828	110.08595	860.92828	202.32991	152.80107	1268.06348	1589.97302	284.90677	1387.24646	262.35333	241.19183	1189.38147	1288.47156	147.82263	848.91089	383.59644	214.00468	1358.28040	88.79198	204.98500	1415.30261	1183.10681	171.66962	1316.30457	78.43362	185.96912	1511.91174	32.08749	175.19521	1219.01953	1129.51001	-62.59599	1318.26453	1252.98840	154.27686	1395.08911	1657.90637	102.58009	1225.34192	984.99249	268.40518	1213.95435	996.12872	94.77733	1373.84985	939.02625	-35.98755	1394.18127	1135.27771	57.15113	1464.00024	1141.73474	105.91926	1521.97400	1190.68506	-107.66801	1290.35889	1159.86243	160.13518	1460.75757	1577.54956	213.38020	1291.02954	1685.78308															 
83	0.820	60.18527	1325.74414	447.10800	313.77631	1457.78125	519.17578	467.15399	1281.88232	1106.67444	388.50159	1399.47424	1130.44641	417.16129	1400.49658	1070.55969	492.35590	1196.08545	1158.11133	455.78876	1227.05078	1255.41992	357.64240	1347.86121	1390.03992	51.45695	1476.75818	1195.43652	396.04584	1478.50256	1093.97656	286.28122	1434.08984	1638.33777	211.94063	1426.27527	1354.56628	308.74283	1397.22449	953.98291	353.51382	1408.66040	633.35229	51.84192	1384.74048	1405.15112	36.97509	1329.13708	609.33679	284.16391	1307.91150	1575.45605	198.48041	1319.65381	1434.24390	66.48153	1096.50366	379.33411	96.50753	932.12903	341.66095	101.79945	926.14301	196.43840	154.93947	1305.06299	1581.85596	283.04886	1408.78906	256.39349	243.95728	1227.31885	1277.95032	142.95695	909.46027	376.49689	213.72845	1360.30591	85.24744	203.87616	1454.24133	1174.65186	175.12779	1316.48743	75.81528	184.96078	1512.10901	31.86493	175.37560	1256.98499	1120.37378	-63.75049	1348.37512	1245.47424	154.07265	1431.75952	1650.64307	100.81144	1263.13257	976.38641	268.24075	1250.95728	988.27930	94.04524	1412.58655	930.84448	-40.40561	1423.23975	1124.72888	50.15977	1496.22095	1127.52161	98.27169	1557.03455	1173.79565	-108.25085	1317.75073	1153.45227				215.22591	1328.48047	1677.70605															 
